<mxfile host="Electron" modified="2024-05-08T14:43:15.842Z" agent="Mozilla/5.0 (Windows NT 10.0; Win64; x64) AppleWebKit/537.36 (KHTML, like Gecko) draw.io/24.2.5 Chrome/120.0.6099.109 Electron/28.1.0 Safari/537.36" etag="bwX7XRNHLhUbXwITJkyR" version="24.2.5" type="device">
  <diagram name="第 1 页" id="NVpO8k8sHnHA3oFOYIeO">
    <mxGraphModel dx="2074" dy="1205" grid="1" gridSize="10" guides="1" tooltips="1" connect="1" arrows="1" fold="1" page="1" pageScale="1" pageWidth="827" pageHeight="1169" math="0" shadow="0">
      <root>
        <mxCell id="0" />
        <mxCell id="1" parent="0" />
        <mxCell id="N2J5XHIXmiKmupVZQr-M-115" value="" style="rounded=0;whiteSpace=wrap;html=1;fillColor=#ffe6cc;strokeColor=#d79b00;" vertex="1" parent="1">
          <mxGeometry x="30" y="310" width="780" height="1600" as="geometry" />
        </mxCell>
        <mxCell id="N2J5XHIXmiKmupVZQr-M-113" value="" style="rounded=0;whiteSpace=wrap;html=1;fillColor=#fad9d5;strokeColor=#ae4132;" vertex="1" parent="1">
          <mxGeometry x="100" y="1550" width="660" height="320" as="geometry" />
        </mxCell>
        <mxCell id="N2J5XHIXmiKmupVZQr-M-37" value="" style="ellipse;whiteSpace=wrap;html=1;fillColor=#e1d5e7;strokeColor=#9673a6;" vertex="1" parent="1">
          <mxGeometry x="400" y="600" width="180" height="210" as="geometry" />
        </mxCell>
        <mxCell id="N2J5XHIXmiKmupVZQr-M-36" value="" style="ellipse;whiteSpace=wrap;html=1;fillColor=#f8cecc;strokeColor=#b85450;" vertex="1" parent="1">
          <mxGeometry x="210" y="560" width="180" height="210" as="geometry" />
        </mxCell>
        <mxCell id="N2J5XHIXmiKmupVZQr-M-1" value="" style="shape=table;startSize=0;container=1;collapsible=0;childLayout=tableLayout;fontSize=16;fillColor=#dae8fc;strokeColor=#6c8ebf;" vertex="1" parent="1">
          <mxGeometry x="170" y="420" width="510" height="40" as="geometry" />
        </mxCell>
        <mxCell id="N2J5XHIXmiKmupVZQr-M-2" value="" style="shape=tableRow;horizontal=0;startSize=0;swimlaneHead=0;swimlaneBody=0;strokeColor=inherit;top=0;left=0;bottom=0;right=0;collapsible=0;dropTarget=0;fillColor=none;points=[[0,0.5],[1,0.5]];portConstraint=eastwest;fontSize=16;" vertex="1" parent="N2J5XHIXmiKmupVZQr-M-1">
          <mxGeometry width="510" height="40" as="geometry" />
        </mxCell>
        <mxCell id="N2J5XHIXmiKmupVZQr-M-3" value="vertex" style="shape=partialRectangle;html=1;whiteSpace=wrap;connectable=0;strokeColor=inherit;overflow=hidden;fillColor=none;top=0;left=0;bottom=0;right=0;pointerEvents=1;fontSize=16;" vertex="1" parent="N2J5XHIXmiKmupVZQr-M-2">
          <mxGeometry width="57" height="40" as="geometry">
            <mxRectangle width="57" height="40" as="alternateBounds" />
          </mxGeometry>
        </mxCell>
        <mxCell id="N2J5XHIXmiKmupVZQr-M-4" value="vertex" style="shape=partialRectangle;html=1;whiteSpace=wrap;connectable=0;strokeColor=inherit;overflow=hidden;fillColor=none;top=0;left=0;bottom=0;right=0;pointerEvents=1;fontSize=16;" vertex="1" parent="N2J5XHIXmiKmupVZQr-M-2">
          <mxGeometry x="57" width="57" height="40" as="geometry">
            <mxRectangle width="57" height="40" as="alternateBounds" />
          </mxGeometry>
        </mxCell>
        <mxCell id="N2J5XHIXmiKmupVZQr-M-5" value="vertex" style="shape=partialRectangle;html=1;whiteSpace=wrap;connectable=0;strokeColor=inherit;overflow=hidden;fillColor=none;top=0;left=0;bottom=0;right=0;pointerEvents=1;fontSize=16;" vertex="1" parent="N2J5XHIXmiKmupVZQr-M-2">
          <mxGeometry x="114" width="56" height="40" as="geometry">
            <mxRectangle width="56" height="40" as="alternateBounds" />
          </mxGeometry>
        </mxCell>
        <mxCell id="N2J5XHIXmiKmupVZQr-M-14" value="vertex" style="shape=partialRectangle;html=1;whiteSpace=wrap;connectable=0;strokeColor=inherit;overflow=hidden;fillColor=none;top=0;left=0;bottom=0;right=0;pointerEvents=1;fontSize=16;" vertex="1" parent="N2J5XHIXmiKmupVZQr-M-2">
          <mxGeometry x="170" width="57" height="40" as="geometry">
            <mxRectangle width="57" height="40" as="alternateBounds" />
          </mxGeometry>
        </mxCell>
        <mxCell id="N2J5XHIXmiKmupVZQr-M-15" value="vertex" style="shape=partialRectangle;html=1;whiteSpace=wrap;connectable=0;strokeColor=inherit;overflow=hidden;fillColor=none;top=0;left=0;bottom=0;right=0;pointerEvents=1;fontSize=16;" vertex="1" parent="N2J5XHIXmiKmupVZQr-M-2">
          <mxGeometry x="227" width="56" height="40" as="geometry">
            <mxRectangle width="56" height="40" as="alternateBounds" />
          </mxGeometry>
        </mxCell>
        <mxCell id="N2J5XHIXmiKmupVZQr-M-16" value="vertex" style="shape=partialRectangle;html=1;whiteSpace=wrap;connectable=0;strokeColor=inherit;overflow=hidden;fillColor=none;top=0;left=0;bottom=0;right=0;pointerEvents=1;fontSize=16;" vertex="1" parent="N2J5XHIXmiKmupVZQr-M-2">
          <mxGeometry x="283" width="57" height="40" as="geometry">
            <mxRectangle width="57" height="40" as="alternateBounds" />
          </mxGeometry>
        </mxCell>
        <mxCell id="N2J5XHIXmiKmupVZQr-M-17" value="vertex" style="shape=partialRectangle;html=1;whiteSpace=wrap;connectable=0;strokeColor=inherit;overflow=hidden;fillColor=none;top=0;left=0;bottom=0;right=0;pointerEvents=1;fontSize=16;" vertex="1" parent="N2J5XHIXmiKmupVZQr-M-2">
          <mxGeometry x="340" width="56" height="40" as="geometry">
            <mxRectangle width="56" height="40" as="alternateBounds" />
          </mxGeometry>
        </mxCell>
        <mxCell id="N2J5XHIXmiKmupVZQr-M-18" value="vertex" style="shape=partialRectangle;html=1;whiteSpace=wrap;connectable=0;strokeColor=inherit;overflow=hidden;fillColor=none;top=0;left=0;bottom=0;right=0;pointerEvents=1;fontSize=16;" vertex="1" parent="N2J5XHIXmiKmupVZQr-M-2">
          <mxGeometry x="396" width="57" height="40" as="geometry">
            <mxRectangle width="57" height="40" as="alternateBounds" />
          </mxGeometry>
        </mxCell>
        <mxCell id="N2J5XHIXmiKmupVZQr-M-19" value="vertex" style="shape=partialRectangle;html=1;whiteSpace=wrap;connectable=0;strokeColor=inherit;overflow=hidden;fillColor=none;top=0;left=0;bottom=0;right=0;pointerEvents=1;fontSize=16;" vertex="1" parent="N2J5XHIXmiKmupVZQr-M-2">
          <mxGeometry x="453" width="57" height="40" as="geometry">
            <mxRectangle width="57" height="40" as="alternateBounds" />
          </mxGeometry>
        </mxCell>
        <mxCell id="N2J5XHIXmiKmupVZQr-M-21" value="Vertex" style="ellipse;whiteSpace=wrap;html=1;aspect=fixed;fontSize=16;fillColor=#d5e8d4;strokeColor=#82b366;" vertex="1" parent="1">
          <mxGeometry x="220" y="620" width="60" height="60" as="geometry" />
        </mxCell>
        <mxCell id="N2J5XHIXmiKmupVZQr-M-22" value="Vertex" style="ellipse;whiteSpace=wrap;html=1;aspect=fixed;fontSize=16;fillColor=#d5e8d4;strokeColor=#82b366;" vertex="1" parent="1">
          <mxGeometry x="320" y="620" width="60" height="60" as="geometry" />
        </mxCell>
        <mxCell id="N2J5XHIXmiKmupVZQr-M-23" value="Vertex" style="ellipse;whiteSpace=wrap;html=1;aspect=fixed;fontSize=16;fillColor=#d5e8d4;strokeColor=#82b366;" vertex="1" parent="1">
          <mxGeometry x="450" y="620" width="60" height="60" as="geometry" />
        </mxCell>
        <mxCell id="N2J5XHIXmiKmupVZQr-M-24" value="Vertex" style="ellipse;whiteSpace=wrap;html=1;aspect=fixed;fontSize=16;fillColor=#d5e8d4;strokeColor=#82b366;" vertex="1" parent="1">
          <mxGeometry x="510" y="700" width="60" height="60" as="geometry" />
        </mxCell>
        <mxCell id="N2J5XHIXmiKmupVZQr-M-25" value="Vertex" style="ellipse;whiteSpace=wrap;html=1;aspect=fixed;fontSize=16;fillColor=#d5e8d4;strokeColor=#82b366;" vertex="1" parent="1">
          <mxGeometry x="280" y="700" width="60" height="60" as="geometry" />
        </mxCell>
        <mxCell id="N2J5XHIXmiKmupVZQr-M-26" value="Vertex" style="ellipse;whiteSpace=wrap;html=1;aspect=fixed;fontSize=16;fillColor=#d5e8d4;strokeColor=#82b366;" vertex="1" parent="1">
          <mxGeometry x="410" y="700" width="60" height="60" as="geometry" />
        </mxCell>
        <mxCell id="N2J5XHIXmiKmupVZQr-M-27" value="" style="endArrow=none;html=1;rounded=0;exitX=1;exitY=0.5;exitDx=0;exitDy=0;entryX=0;entryY=0.5;entryDx=0;entryDy=0;" edge="1" parent="1" source="N2J5XHIXmiKmupVZQr-M-21" target="N2J5XHIXmiKmupVZQr-M-22">
          <mxGeometry width="50" height="50" relative="1" as="geometry">
            <mxPoint x="390" y="640" as="sourcePoint" />
            <mxPoint x="440" y="590" as="targetPoint" />
          </mxGeometry>
        </mxCell>
        <mxCell id="N2J5XHIXmiKmupVZQr-M-28" value="" style="endArrow=none;html=1;rounded=0;exitX=0;exitY=0.5;exitDx=0;exitDy=0;entryX=1;entryY=0.5;entryDx=0;entryDy=0;" edge="1" parent="1" source="N2J5XHIXmiKmupVZQr-M-23" target="N2J5XHIXmiKmupVZQr-M-22">
          <mxGeometry width="50" height="50" relative="1" as="geometry">
            <mxPoint x="290" y="660" as="sourcePoint" />
            <mxPoint x="330" y="660" as="targetPoint" />
          </mxGeometry>
        </mxCell>
        <mxCell id="N2J5XHIXmiKmupVZQr-M-29" value="" style="endArrow=none;html=1;rounded=0;exitX=0.5;exitY=1;exitDx=0;exitDy=0;entryX=0.5;entryY=0;entryDx=0;entryDy=0;" edge="1" parent="1" source="N2J5XHIXmiKmupVZQr-M-22" target="N2J5XHIXmiKmupVZQr-M-25">
          <mxGeometry width="50" height="50" relative="1" as="geometry">
            <mxPoint x="430" y="660" as="sourcePoint" />
            <mxPoint x="390" y="660" as="targetPoint" />
          </mxGeometry>
        </mxCell>
        <mxCell id="N2J5XHIXmiKmupVZQr-M-30" value="" style="endArrow=none;html=1;rounded=0;exitX=1;exitY=0.5;exitDx=0;exitDy=0;entryX=0;entryY=0.5;entryDx=0;entryDy=0;" edge="1" parent="1" source="N2J5XHIXmiKmupVZQr-M-25" target="N2J5XHIXmiKmupVZQr-M-26">
          <mxGeometry width="50" height="50" relative="1" as="geometry">
            <mxPoint x="290" y="660" as="sourcePoint" />
            <mxPoint x="330" y="660" as="targetPoint" />
          </mxGeometry>
        </mxCell>
        <mxCell id="N2J5XHIXmiKmupVZQr-M-31" value="" style="endArrow=none;html=1;rounded=0;exitX=1;exitY=0.5;exitDx=0;exitDy=0;entryX=0;entryY=0.5;entryDx=0;entryDy=0;" edge="1" parent="1" source="N2J5XHIXmiKmupVZQr-M-26" target="N2J5XHIXmiKmupVZQr-M-24">
          <mxGeometry width="50" height="50" relative="1" as="geometry">
            <mxPoint x="350" y="740" as="sourcePoint" />
            <mxPoint x="390" y="740" as="targetPoint" />
          </mxGeometry>
        </mxCell>
        <mxCell id="N2J5XHIXmiKmupVZQr-M-32" value="" style="endArrow=none;html=1;rounded=0;exitX=1;exitY=0.5;exitDx=0;exitDy=0;entryX=0.5;entryY=0;entryDx=0;entryDy=0;" edge="1" parent="1" source="N2J5XHIXmiKmupVZQr-M-23" target="N2J5XHIXmiKmupVZQr-M-24">
          <mxGeometry width="50" height="50" relative="1" as="geometry">
            <mxPoint x="450" y="740" as="sourcePoint" />
            <mxPoint x="490" y="740" as="targetPoint" />
          </mxGeometry>
        </mxCell>
        <mxCell id="N2J5XHIXmiKmupVZQr-M-33" value="" style="endArrow=none;html=1;rounded=0;exitX=0.5;exitY=1;exitDx=0;exitDy=0;entryX=0.5;entryY=0;entryDx=0;entryDy=0;" edge="1" parent="1" source="N2J5XHIXmiKmupVZQr-M-23" target="N2J5XHIXmiKmupVZQr-M-26">
          <mxGeometry width="50" height="50" relative="1" as="geometry">
            <mxPoint x="472" y="687" as="sourcePoint" />
            <mxPoint x="499" y="719" as="targetPoint" />
          </mxGeometry>
        </mxCell>
        <mxCell id="N2J5XHIXmiKmupVZQr-M-34" value="" style="endArrow=none;html=1;rounded=0;exitX=0.5;exitY=1;exitDx=0;exitDy=0;entryX=0.5;entryY=0;entryDx=0;entryDy=0;" edge="1" parent="1" source="N2J5XHIXmiKmupVZQr-M-22" target="N2J5XHIXmiKmupVZQr-M-26">
          <mxGeometry width="50" height="50" relative="1" as="geometry">
            <mxPoint x="460" y="690" as="sourcePoint" />
            <mxPoint x="520" y="710" as="targetPoint" />
          </mxGeometry>
        </mxCell>
        <mxCell id="N2J5XHIXmiKmupVZQr-M-35" value="" style="endArrow=none;html=1;rounded=0;exitX=0.5;exitY=1;exitDx=0;exitDy=0;entryX=0;entryY=0.5;entryDx=0;entryDy=0;" edge="1" parent="1" source="N2J5XHIXmiKmupVZQr-M-21" target="N2J5XHIXmiKmupVZQr-M-25">
          <mxGeometry width="50" height="50" relative="1" as="geometry">
            <mxPoint x="360" y="690" as="sourcePoint" />
            <mxPoint x="420" y="710" as="targetPoint" />
          </mxGeometry>
        </mxCell>
        <mxCell id="N2J5XHIXmiKmupVZQr-M-39" value="" style="shape=singleArrow;direction=south;whiteSpace=wrap;html=1;fillColor=#b0e3e6;strokeColor=#0e8088;" vertex="1" parent="1">
          <mxGeometry x="390" y="480" width="40" height="70" as="geometry" />
        </mxCell>
        <mxCell id="N2J5XHIXmiKmupVZQr-M-40" value="&lt;font style=&quot;font-size: 15px;&quot;&gt;Triangle Partion&lt;/font&gt;" style="text;strokeColor=none;fillColor=none;html=1;fontSize=24;fontStyle=1;verticalAlign=middle;align=center;" vertex="1" parent="1">
          <mxGeometry x="480" y="495" width="100" height="40" as="geometry" />
        </mxCell>
        <mxCell id="N2J5XHIXmiKmupVZQr-M-41" value="" style="shape=table;startSize=0;container=1;collapsible=0;childLayout=tableLayout;fontSize=16;fillColor=#f8cecc;strokeColor=#b85450;" vertex="1" parent="1">
          <mxGeometry x="170" y="900" width="510" height="40" as="geometry" />
        </mxCell>
        <mxCell id="N2J5XHIXmiKmupVZQr-M-42" value="" style="shape=tableRow;horizontal=0;startSize=0;swimlaneHead=0;swimlaneBody=0;strokeColor=inherit;top=0;left=0;bottom=0;right=0;collapsible=0;dropTarget=0;fillColor=none;points=[[0,0.5],[1,0.5]];portConstraint=eastwest;fontSize=16;" vertex="1" parent="N2J5XHIXmiKmupVZQr-M-41">
          <mxGeometry width="510" height="40" as="geometry" />
        </mxCell>
        <mxCell id="N2J5XHIXmiKmupVZQr-M-43" value="Cluster" style="shape=partialRectangle;html=1;whiteSpace=wrap;connectable=0;strokeColor=inherit;overflow=hidden;fillColor=none;top=0;left=0;bottom=0;right=0;pointerEvents=1;fontSize=16;" vertex="1" parent="N2J5XHIXmiKmupVZQr-M-42">
          <mxGeometry width="86" height="40" as="geometry">
            <mxRectangle width="86" height="40" as="alternateBounds" />
          </mxGeometry>
        </mxCell>
        <mxCell id="N2J5XHIXmiKmupVZQr-M-44" value="Cluster" style="shape=partialRectangle;html=1;whiteSpace=wrap;connectable=0;strokeColor=inherit;overflow=hidden;fillColor=none;top=0;left=0;bottom=0;right=0;pointerEvents=1;fontSize=16;" vertex="1" parent="N2J5XHIXmiKmupVZQr-M-42">
          <mxGeometry x="86" width="85" height="40" as="geometry">
            <mxRectangle width="85" height="40" as="alternateBounds" />
          </mxGeometry>
        </mxCell>
        <mxCell id="N2J5XHIXmiKmupVZQr-M-45" value="Cluster" style="shape=partialRectangle;html=1;whiteSpace=wrap;connectable=0;strokeColor=inherit;overflow=hidden;fillColor=none;top=0;left=0;bottom=0;right=0;pointerEvents=1;fontSize=16;" vertex="1" parent="N2J5XHIXmiKmupVZQr-M-42">
          <mxGeometry x="171" width="84" height="40" as="geometry">
            <mxRectangle width="84" height="40" as="alternateBounds" />
          </mxGeometry>
        </mxCell>
        <mxCell id="N2J5XHIXmiKmupVZQr-M-46" value="Cluster" style="shape=partialRectangle;html=1;whiteSpace=wrap;connectable=0;strokeColor=inherit;overflow=hidden;fillColor=none;top=0;left=0;bottom=0;right=0;pointerEvents=1;fontSize=16;" vertex="1" parent="N2J5XHIXmiKmupVZQr-M-42">
          <mxGeometry x="255" width="86" height="40" as="geometry">
            <mxRectangle width="86" height="40" as="alternateBounds" />
          </mxGeometry>
        </mxCell>
        <mxCell id="N2J5XHIXmiKmupVZQr-M-47" value="Cluster" style="shape=partialRectangle;html=1;whiteSpace=wrap;connectable=0;strokeColor=inherit;overflow=hidden;fillColor=none;top=0;left=0;bottom=0;right=0;pointerEvents=1;fontSize=16;" vertex="1" parent="N2J5XHIXmiKmupVZQr-M-42">
          <mxGeometry x="341" width="84" height="40" as="geometry">
            <mxRectangle width="84" height="40" as="alternateBounds" />
          </mxGeometry>
        </mxCell>
        <mxCell id="N2J5XHIXmiKmupVZQr-M-48" value="Cluster" style="shape=partialRectangle;html=1;whiteSpace=wrap;connectable=0;strokeColor=inherit;overflow=hidden;fillColor=none;top=0;left=0;bottom=0;right=0;pointerEvents=1;fontSize=16;" vertex="1" parent="N2J5XHIXmiKmupVZQr-M-42">
          <mxGeometry x="425" width="85" height="40" as="geometry">
            <mxRectangle width="85" height="40" as="alternateBounds" />
          </mxGeometry>
        </mxCell>
        <mxCell id="N2J5XHIXmiKmupVZQr-M-52" value="" style="shape=singleArrow;direction=south;whiteSpace=wrap;html=1;fillColor=#b0e3e6;strokeColor=#0e8088;" vertex="1" parent="1">
          <mxGeometry x="390" y="800" width="40" height="70" as="geometry" />
        </mxCell>
        <mxCell id="N2J5XHIXmiKmupVZQr-M-53" value="Cluster 0" style="text;html=1;align=center;verticalAlign=middle;whiteSpace=wrap;rounded=0;fontSize=15;" vertex="1" parent="1">
          <mxGeometry x="270" y="585" width="70" height="30" as="geometry" />
        </mxCell>
        <mxCell id="N2J5XHIXmiKmupVZQr-M-54" value="Cluster 1" style="text;html=1;align=center;verticalAlign=middle;whiteSpace=wrap;rounded=0;fontSize=15;" vertex="1" parent="1">
          <mxGeometry x="455" y="760" width="70" height="30" as="geometry" />
        </mxCell>
        <mxCell id="N2J5XHIXmiKmupVZQr-M-55" value="" style="ellipse;whiteSpace=wrap;html=1;fillColor=#d5e8d4;strokeColor=#82b366;" vertex="1" parent="1">
          <mxGeometry x="430" y="1120" width="180" height="210" as="geometry" />
        </mxCell>
        <mxCell id="N2J5XHIXmiKmupVZQr-M-56" value="" style="ellipse;whiteSpace=wrap;html=1;fillColor=#dae8fc;strokeColor=#6c8ebf;" vertex="1" parent="1">
          <mxGeometry x="240" y="1080" width="180" height="210" as="geometry" />
        </mxCell>
        <mxCell id="N2J5XHIXmiKmupVZQr-M-57" value="Cluster" style="ellipse;whiteSpace=wrap;html=1;aspect=fixed;fontSize=16;fillColor=#f8cecc;strokeColor=#b85450;" vertex="1" parent="1">
          <mxGeometry x="250" y="1140" width="60" height="60" as="geometry" />
        </mxCell>
        <mxCell id="N2J5XHIXmiKmupVZQr-M-58" value="Cluster" style="ellipse;whiteSpace=wrap;html=1;aspect=fixed;fontSize=16;fillColor=#f8cecc;strokeColor=#b85450;" vertex="1" parent="1">
          <mxGeometry x="350" y="1140" width="60" height="60" as="geometry" />
        </mxCell>
        <mxCell id="N2J5XHIXmiKmupVZQr-M-59" value="Cluster" style="ellipse;whiteSpace=wrap;html=1;aspect=fixed;fontSize=16;fillColor=#f8cecc;strokeColor=#b85450;" vertex="1" parent="1">
          <mxGeometry x="480" y="1140" width="60" height="60" as="geometry" />
        </mxCell>
        <mxCell id="N2J5XHIXmiKmupVZQr-M-60" value="Cluster" style="ellipse;whiteSpace=wrap;html=1;aspect=fixed;fontSize=16;fillColor=#f8cecc;strokeColor=#b85450;" vertex="1" parent="1">
          <mxGeometry x="540" y="1220" width="60" height="60" as="geometry" />
        </mxCell>
        <mxCell id="N2J5XHIXmiKmupVZQr-M-61" value="Cluster" style="ellipse;whiteSpace=wrap;html=1;aspect=fixed;fontSize=16;fillColor=#f8cecc;strokeColor=#b85450;" vertex="1" parent="1">
          <mxGeometry x="310" y="1220" width="60" height="60" as="geometry" />
        </mxCell>
        <mxCell id="N2J5XHIXmiKmupVZQr-M-62" value="Cluster" style="ellipse;whiteSpace=wrap;html=1;aspect=fixed;fontSize=16;fillColor=#f8cecc;strokeColor=#b85450;" vertex="1" parent="1">
          <mxGeometry x="440" y="1220" width="60" height="60" as="geometry" />
        </mxCell>
        <mxCell id="N2J5XHIXmiKmupVZQr-M-63" value="" style="endArrow=none;html=1;rounded=0;exitX=1;exitY=0.5;exitDx=0;exitDy=0;entryX=0;entryY=0.5;entryDx=0;entryDy=0;" edge="1" parent="1" source="N2J5XHIXmiKmupVZQr-M-57" target="N2J5XHIXmiKmupVZQr-M-58">
          <mxGeometry width="50" height="50" relative="1" as="geometry">
            <mxPoint x="420" y="1160" as="sourcePoint" />
            <mxPoint x="470" y="1110" as="targetPoint" />
          </mxGeometry>
        </mxCell>
        <mxCell id="N2J5XHIXmiKmupVZQr-M-64" value="" style="endArrow=none;html=1;rounded=0;exitX=0;exitY=0.5;exitDx=0;exitDy=0;entryX=1;entryY=0.5;entryDx=0;entryDy=0;" edge="1" parent="1" source="N2J5XHIXmiKmupVZQr-M-59" target="N2J5XHIXmiKmupVZQr-M-58">
          <mxGeometry width="50" height="50" relative="1" as="geometry">
            <mxPoint x="320" y="1180" as="sourcePoint" />
            <mxPoint x="360" y="1180" as="targetPoint" />
          </mxGeometry>
        </mxCell>
        <mxCell id="N2J5XHIXmiKmupVZQr-M-65" value="" style="endArrow=none;html=1;rounded=0;exitX=0.5;exitY=1;exitDx=0;exitDy=0;entryX=0.5;entryY=0;entryDx=0;entryDy=0;" edge="1" parent="1" source="N2J5XHIXmiKmupVZQr-M-58" target="N2J5XHIXmiKmupVZQr-M-61">
          <mxGeometry width="50" height="50" relative="1" as="geometry">
            <mxPoint x="460" y="1180" as="sourcePoint" />
            <mxPoint x="420" y="1180" as="targetPoint" />
          </mxGeometry>
        </mxCell>
        <mxCell id="N2J5XHIXmiKmupVZQr-M-66" value="" style="endArrow=none;html=1;rounded=0;exitX=1;exitY=0.5;exitDx=0;exitDy=0;entryX=0;entryY=0.5;entryDx=0;entryDy=0;" edge="1" parent="1" source="N2J5XHIXmiKmupVZQr-M-61" target="N2J5XHIXmiKmupVZQr-M-62">
          <mxGeometry width="50" height="50" relative="1" as="geometry">
            <mxPoint x="320" y="1180" as="sourcePoint" />
            <mxPoint x="360" y="1180" as="targetPoint" />
          </mxGeometry>
        </mxCell>
        <mxCell id="N2J5XHIXmiKmupVZQr-M-67" value="" style="endArrow=none;html=1;rounded=0;exitX=1;exitY=0.5;exitDx=0;exitDy=0;entryX=0;entryY=0.5;entryDx=0;entryDy=0;" edge="1" parent="1" source="N2J5XHIXmiKmupVZQr-M-62" target="N2J5XHIXmiKmupVZQr-M-60">
          <mxGeometry width="50" height="50" relative="1" as="geometry">
            <mxPoint x="380" y="1260" as="sourcePoint" />
            <mxPoint x="420" y="1260" as="targetPoint" />
          </mxGeometry>
        </mxCell>
        <mxCell id="N2J5XHIXmiKmupVZQr-M-68" value="" style="endArrow=none;html=1;rounded=0;exitX=1;exitY=0.5;exitDx=0;exitDy=0;entryX=0.5;entryY=0;entryDx=0;entryDy=0;" edge="1" parent="1" source="N2J5XHIXmiKmupVZQr-M-59" target="N2J5XHIXmiKmupVZQr-M-60">
          <mxGeometry width="50" height="50" relative="1" as="geometry">
            <mxPoint x="480" y="1260" as="sourcePoint" />
            <mxPoint x="520" y="1260" as="targetPoint" />
          </mxGeometry>
        </mxCell>
        <mxCell id="N2J5XHIXmiKmupVZQr-M-69" value="" style="endArrow=none;html=1;rounded=0;exitX=0.5;exitY=1;exitDx=0;exitDy=0;entryX=0.5;entryY=0;entryDx=0;entryDy=0;" edge="1" parent="1" source="N2J5XHIXmiKmupVZQr-M-59" target="N2J5XHIXmiKmupVZQr-M-62">
          <mxGeometry width="50" height="50" relative="1" as="geometry">
            <mxPoint x="502" y="1207" as="sourcePoint" />
            <mxPoint x="529" y="1239" as="targetPoint" />
          </mxGeometry>
        </mxCell>
        <mxCell id="N2J5XHIXmiKmupVZQr-M-70" value="" style="endArrow=none;html=1;rounded=0;exitX=0.5;exitY=1;exitDx=0;exitDy=0;entryX=0.5;entryY=0;entryDx=0;entryDy=0;" edge="1" parent="1" source="N2J5XHIXmiKmupVZQr-M-58" target="N2J5XHIXmiKmupVZQr-M-62">
          <mxGeometry width="50" height="50" relative="1" as="geometry">
            <mxPoint x="490" y="1210" as="sourcePoint" />
            <mxPoint x="550" y="1230" as="targetPoint" />
          </mxGeometry>
        </mxCell>
        <mxCell id="N2J5XHIXmiKmupVZQr-M-71" value="" style="endArrow=none;html=1;rounded=0;exitX=0.5;exitY=1;exitDx=0;exitDy=0;entryX=0;entryY=0.5;entryDx=0;entryDy=0;" edge="1" parent="1" source="N2J5XHIXmiKmupVZQr-M-57" target="N2J5XHIXmiKmupVZQr-M-61">
          <mxGeometry width="50" height="50" relative="1" as="geometry">
            <mxPoint x="390" y="1210" as="sourcePoint" />
            <mxPoint x="450" y="1230" as="targetPoint" />
          </mxGeometry>
        </mxCell>
        <mxCell id="N2J5XHIXmiKmupVZQr-M-72" value="" style="shape=singleArrow;direction=south;whiteSpace=wrap;html=1;fillColor=#b0e3e6;strokeColor=#0e8088;" vertex="1" parent="1">
          <mxGeometry x="405" y="985" width="40" height="70" as="geometry" />
        </mxCell>
        <mxCell id="N2J5XHIXmiKmupVZQr-M-73" value="&lt;font style=&quot;font-size: 15px;&quot;&gt;Cluster Partion&lt;/font&gt;" style="text;strokeColor=none;fillColor=none;html=1;fontSize=24;fontStyle=1;verticalAlign=middle;align=center;" vertex="1" parent="1">
          <mxGeometry x="510" y="1015" width="100" height="40" as="geometry" />
        </mxCell>
        <mxCell id="N2J5XHIXmiKmupVZQr-M-74" value="" style="shape=singleArrow;direction=south;whiteSpace=wrap;html=1;fillColor=#b0e3e6;strokeColor=#0e8088;" vertex="1" parent="1">
          <mxGeometry x="400" y="1320" width="40" height="70" as="geometry" />
        </mxCell>
        <mxCell id="N2J5XHIXmiKmupVZQr-M-75" value="Cluster Group 0" style="text;html=1;align=center;verticalAlign=middle;whiteSpace=wrap;rounded=0;fontSize=15;" vertex="1" parent="1">
          <mxGeometry x="290" y="1100" width="80" height="35" as="geometry" />
        </mxCell>
        <mxCell id="N2J5XHIXmiKmupVZQr-M-77" value="Cluster Group 1" style="text;html=1;align=center;verticalAlign=middle;whiteSpace=wrap;rounded=0;fontSize=15;" vertex="1" parent="1">
          <mxGeometry x="480" y="1280" width="80" height="35" as="geometry" />
        </mxCell>
        <mxCell id="N2J5XHIXmiKmupVZQr-M-79" value="" style="shape=table;startSize=0;container=1;collapsible=0;childLayout=tableLayout;fontSize=16;fillColor=#fad7ac;strokeColor=#b46504;" vertex="1" parent="1">
          <mxGeometry x="185" y="1440" width="515" height="40" as="geometry" />
        </mxCell>
        <mxCell id="N2J5XHIXmiKmupVZQr-M-80" value="" style="shape=tableRow;horizontal=0;startSize=0;swimlaneHead=0;swimlaneBody=0;strokeColor=inherit;top=0;left=0;bottom=0;right=0;collapsible=0;dropTarget=0;fillColor=none;points=[[0,0.5],[1,0.5]];portConstraint=eastwest;fontSize=16;" vertex="1" parent="N2J5XHIXmiKmupVZQr-M-79">
          <mxGeometry width="515" height="40" as="geometry" />
        </mxCell>
        <mxCell id="N2J5XHIXmiKmupVZQr-M-81" value="Cluster Group" style="shape=partialRectangle;html=1;whiteSpace=wrap;connectable=0;strokeColor=inherit;overflow=hidden;fillColor=none;top=0;left=0;bottom=0;right=0;pointerEvents=1;fontSize=16;" vertex="1" parent="N2J5XHIXmiKmupVZQr-M-80">
          <mxGeometry width="129" height="40" as="geometry">
            <mxRectangle width="129" height="40" as="alternateBounds" />
          </mxGeometry>
        </mxCell>
        <mxCell id="N2J5XHIXmiKmupVZQr-M-82" value="Cluster Group" style="shape=partialRectangle;html=1;whiteSpace=wrap;connectable=0;strokeColor=inherit;overflow=hidden;fillColor=none;top=0;left=0;bottom=0;right=0;pointerEvents=1;fontSize=16;" vertex="1" parent="N2J5XHIXmiKmupVZQr-M-80">
          <mxGeometry x="129" width="130" height="40" as="geometry">
            <mxRectangle width="130" height="40" as="alternateBounds" />
          </mxGeometry>
        </mxCell>
        <mxCell id="N2J5XHIXmiKmupVZQr-M-83" value="Cluster Group" style="shape=partialRectangle;html=1;whiteSpace=wrap;connectable=0;strokeColor=inherit;overflow=hidden;fillColor=none;top=0;left=0;bottom=0;right=0;pointerEvents=1;fontSize=16;" vertex="1" parent="N2J5XHIXmiKmupVZQr-M-80">
          <mxGeometry x="259" width="127" height="40" as="geometry">
            <mxRectangle width="127" height="40" as="alternateBounds" />
          </mxGeometry>
        </mxCell>
        <mxCell id="N2J5XHIXmiKmupVZQr-M-84" value="Cluster Group" style="shape=partialRectangle;html=1;whiteSpace=wrap;connectable=0;strokeColor=inherit;overflow=hidden;fillColor=none;top=0;left=0;bottom=0;right=0;pointerEvents=1;fontSize=16;" vertex="1" parent="N2J5XHIXmiKmupVZQr-M-80">
          <mxGeometry x="386" width="129" height="40" as="geometry">
            <mxRectangle width="129" height="40" as="alternateBounds" />
          </mxGeometry>
        </mxCell>
        <mxCell id="N2J5XHIXmiKmupVZQr-M-90" value="" style="shape=table;startSize=0;container=1;collapsible=0;childLayout=tableLayout;fontSize=16;" vertex="1" parent="1">
          <mxGeometry x="155" y="1650" width="575" height="40" as="geometry" />
        </mxCell>
        <mxCell id="N2J5XHIXmiKmupVZQr-M-91" value="" style="shape=tableRow;horizontal=0;startSize=0;swimlaneHead=0;swimlaneBody=0;strokeColor=inherit;top=0;left=0;bottom=0;right=0;collapsible=0;dropTarget=0;fillColor=none;points=[[0,0.5],[1,0.5]];portConstraint=eastwest;fontSize=16;" vertex="1" parent="N2J5XHIXmiKmupVZQr-M-90">
          <mxGeometry width="575" height="40" as="geometry" />
        </mxCell>
        <mxCell id="N2J5XHIXmiKmupVZQr-M-92" value="Cluster Group" style="shape=partialRectangle;html=1;whiteSpace=wrap;connectable=0;strokeColor=#36393d;overflow=hidden;fillColor=#cdeb8b;top=0;left=0;bottom=0;right=0;pointerEvents=1;fontSize=16;" vertex="1" parent="N2J5XHIXmiKmupVZQr-M-91">
          <mxGeometry width="96" height="40" as="geometry">
            <mxRectangle width="96" height="40" as="alternateBounds" />
          </mxGeometry>
        </mxCell>
        <mxCell id="N2J5XHIXmiKmupVZQr-M-93" value="Cluster Group" style="shape=partialRectangle;html=1;whiteSpace=wrap;connectable=0;strokeColor=#36393d;overflow=hidden;fillColor=#ffcccc;top=0;left=0;bottom=0;right=0;pointerEvents=1;fontSize=16;" vertex="1" parent="N2J5XHIXmiKmupVZQr-M-91">
          <mxGeometry x="96" width="97" height="40" as="geometry">
            <mxRectangle width="97" height="40" as="alternateBounds" />
          </mxGeometry>
        </mxCell>
        <mxCell id="N2J5XHIXmiKmupVZQr-M-94" value="Cluster Group" style="shape=partialRectangle;html=1;whiteSpace=wrap;connectable=0;strokeColor=#36393d;overflow=hidden;fillColor=#cdeb8b;top=0;left=0;bottom=0;right=0;pointerEvents=1;fontSize=16;" vertex="1" parent="N2J5XHIXmiKmupVZQr-M-91">
          <mxGeometry x="193" width="94" height="40" as="geometry">
            <mxRectangle width="94" height="40" as="alternateBounds" />
          </mxGeometry>
        </mxCell>
        <mxCell id="N2J5XHIXmiKmupVZQr-M-95" value="Cluster Group" style="shape=partialRectangle;html=1;whiteSpace=wrap;connectable=0;strokeColor=#36393d;overflow=hidden;fillColor=#ffcc99;top=0;left=0;bottom=0;right=0;pointerEvents=1;fontSize=16;" vertex="1" parent="N2J5XHIXmiKmupVZQr-M-91">
          <mxGeometry x="287" width="96" height="40" as="geometry">
            <mxRectangle width="96" height="40" as="alternateBounds" />
          </mxGeometry>
        </mxCell>
        <mxCell id="N2J5XHIXmiKmupVZQr-M-96" value="Cluster Group" style="shape=partialRectangle;html=1;whiteSpace=wrap;connectable=0;strokeColor=#36393d;overflow=hidden;fillColor=#ffcccc;top=0;left=0;bottom=0;right=0;pointerEvents=1;fontSize=16;" vertex="1" parent="N2J5XHIXmiKmupVZQr-M-91">
          <mxGeometry x="383" width="96" height="40" as="geometry">
            <mxRectangle width="96" height="40" as="alternateBounds" />
          </mxGeometry>
        </mxCell>
        <mxCell id="N2J5XHIXmiKmupVZQr-M-97" value="Cluster Group" style="shape=partialRectangle;html=1;whiteSpace=wrap;connectable=0;strokeColor=#36393d;overflow=hidden;fillColor=#ffff88;top=0;left=0;bottom=0;right=0;pointerEvents=1;fontSize=16;" vertex="1" parent="N2J5XHIXmiKmupVZQr-M-91">
          <mxGeometry x="479" width="96" height="40" as="geometry">
            <mxRectangle width="96" height="40" as="alternateBounds" />
          </mxGeometry>
        </mxCell>
        <mxCell id="N2J5XHIXmiKmupVZQr-M-99" value="" style="shape=table;startSize=0;container=1;collapsible=0;childLayout=tableLayout;fontSize=16;" vertex="1" parent="1">
          <mxGeometry x="310" y="1734" width="287" height="40" as="geometry" />
        </mxCell>
        <mxCell id="N2J5XHIXmiKmupVZQr-M-100" value="" style="shape=tableRow;horizontal=0;startSize=0;swimlaneHead=0;swimlaneBody=0;strokeColor=inherit;top=0;left=0;bottom=0;right=0;collapsible=0;dropTarget=0;fillColor=none;points=[[0,0.5],[1,0.5]];portConstraint=eastwest;fontSize=16;" vertex="1" parent="N2J5XHIXmiKmupVZQr-M-99">
          <mxGeometry width="287" height="40" as="geometry" />
        </mxCell>
        <mxCell id="N2J5XHIXmiKmupVZQr-M-102" value="Cluster Group" style="shape=partialRectangle;html=1;whiteSpace=wrap;connectable=0;strokeColor=#d79b00;overflow=hidden;fillColor=#ffe6cc;top=0;left=0;bottom=0;right=0;pointerEvents=1;fontSize=16;" vertex="1" parent="N2J5XHIXmiKmupVZQr-M-100">
          <mxGeometry width="97" height="40" as="geometry">
            <mxRectangle width="97" height="40" as="alternateBounds" />
          </mxGeometry>
        </mxCell>
        <mxCell id="N2J5XHIXmiKmupVZQr-M-103" value="Cluster Group" style="shape=partialRectangle;html=1;whiteSpace=wrap;connectable=0;strokeColor=#b85450;overflow=hidden;fillColor=#f8cecc;top=0;left=0;bottom=0;right=0;pointerEvents=1;fontSize=16;" vertex="1" parent="N2J5XHIXmiKmupVZQr-M-100">
          <mxGeometry x="97" width="94" height="40" as="geometry">
            <mxRectangle width="94" height="40" as="alternateBounds" />
          </mxGeometry>
        </mxCell>
        <mxCell id="N2J5XHIXmiKmupVZQr-M-104" value="Cluster Group" style="shape=partialRectangle;html=1;whiteSpace=wrap;connectable=0;strokeColor=#82b366;overflow=hidden;fillColor=#d5e8d4;top=0;left=0;bottom=0;right=0;pointerEvents=1;fontSize=16;" vertex="1" parent="N2J5XHIXmiKmupVZQr-M-100">
          <mxGeometry x="191" width="96" height="40" as="geometry">
            <mxRectangle width="96" height="40" as="alternateBounds" />
          </mxGeometry>
        </mxCell>
        <mxCell id="N2J5XHIXmiKmupVZQr-M-108" value="" style="shape=table;startSize=0;container=1;collapsible=0;childLayout=tableLayout;fontSize=16;fillColor=#e1d5e7;strokeColor=#9673a6;" vertex="1" parent="1">
          <mxGeometry x="400" y="1810" width="97" height="40" as="geometry" />
        </mxCell>
        <mxCell id="N2J5XHIXmiKmupVZQr-M-109" value="" style="shape=tableRow;horizontal=0;startSize=0;swimlaneHead=0;swimlaneBody=0;strokeColor=inherit;top=0;left=0;bottom=0;right=0;collapsible=0;dropTarget=0;fillColor=none;points=[[0,0.5],[1,0.5]];portConstraint=eastwest;fontSize=16;" vertex="1" parent="N2J5XHIXmiKmupVZQr-M-108">
          <mxGeometry width="97" height="40" as="geometry" />
        </mxCell>
        <mxCell id="N2J5XHIXmiKmupVZQr-M-110" value="Cluster Group" style="shape=partialRectangle;html=1;whiteSpace=wrap;connectable=0;strokeColor=inherit;overflow=hidden;fillColor=none;top=0;left=0;bottom=0;right=0;pointerEvents=1;fontSize=16;" vertex="1" parent="N2J5XHIXmiKmupVZQr-M-109">
          <mxGeometry width="97" height="40" as="geometry">
            <mxRectangle width="97" height="40" as="alternateBounds" />
          </mxGeometry>
        </mxCell>
        <mxCell id="N2J5XHIXmiKmupVZQr-M-114" value="Build DAG" style="text;strokeColor=none;fillColor=none;html=1;fontSize=24;fontStyle=1;verticalAlign=middle;align=center;" vertex="1" parent="1">
          <mxGeometry x="380" y="1580" width="167.5" height="40" as="geometry" />
        </mxCell>
        <mxCell id="N2J5XHIXmiKmupVZQr-M-116" value="SimNanite Builder" style="text;strokeColor=none;fillColor=none;html=1;fontSize=24;fontStyle=1;verticalAlign=middle;align=center;" vertex="1" parent="1">
          <mxGeometry x="310" y="330" width="230" height="40" as="geometry" />
        </mxCell>
        <mxCell id="N2J5XHIXmiKmupVZQr-M-118" value="" style="endArrow=classic;html=1;rounded=0;exitX=0.081;exitY=1.05;exitDx=0;exitDy=0;exitPerimeter=0;entryX=0.159;entryY=0;entryDx=0;entryDy=0;entryPerimeter=0;" edge="1" parent="1" source="N2J5XHIXmiKmupVZQr-M-91" target="N2J5XHIXmiKmupVZQr-M-100">
          <mxGeometry width="50" height="50" relative="1" as="geometry">
            <mxPoint x="390" y="1550" as="sourcePoint" />
            <mxPoint x="440" y="1500" as="targetPoint" />
          </mxGeometry>
        </mxCell>
        <mxCell id="N2J5XHIXmiKmupVZQr-M-119" value="" style="endArrow=classic;html=1;rounded=0;exitX=0.25;exitY=1;exitDx=0;exitDy=0;entryX=0.173;entryY=0.033;entryDx=0;entryDy=0;entryPerimeter=0;" edge="1" parent="1" source="N2J5XHIXmiKmupVZQr-M-90" target="N2J5XHIXmiKmupVZQr-M-100">
          <mxGeometry width="50" height="50" relative="1" as="geometry">
            <mxPoint x="242" y="1702" as="sourcePoint" />
            <mxPoint x="380" y="1730" as="targetPoint" />
          </mxGeometry>
        </mxCell>
        <mxCell id="N2J5XHIXmiKmupVZQr-M-120" value="" style="endArrow=classic;html=1;rounded=0;exitX=0.25;exitY=1;exitDx=0;exitDy=0;entryX=0.498;entryY=-0.05;entryDx=0;entryDy=0;entryPerimeter=0;" edge="1" parent="1" source="N2J5XHIXmiKmupVZQr-M-90" target="N2J5XHIXmiKmupVZQr-M-100">
          <mxGeometry width="50" height="50" relative="1" as="geometry">
            <mxPoint x="339" y="1700" as="sourcePoint" />
            <mxPoint x="383" y="1745" as="targetPoint" />
          </mxGeometry>
        </mxCell>
        <mxCell id="N2J5XHIXmiKmupVZQr-M-121" value="" style="endArrow=classic;html=1;rounded=0;exitX=0.581;exitY=1.033;exitDx=0;exitDy=0;entryX=0.491;entryY=-0.067;entryDx=0;entryDy=0;entryPerimeter=0;exitPerimeter=0;" edge="1" parent="1" source="N2J5XHIXmiKmupVZQr-M-90" target="N2J5XHIXmiKmupVZQr-M-100">
          <mxGeometry width="50" height="50" relative="1" as="geometry">
            <mxPoint x="339" y="1700" as="sourcePoint" />
            <mxPoint x="476" y="1742" as="targetPoint" />
          </mxGeometry>
        </mxCell>
        <mxCell id="N2J5XHIXmiKmupVZQr-M-122" value="" style="endArrow=classic;html=1;rounded=0;exitX=0.754;exitY=1;exitDx=0;exitDy=0;entryX=0.816;entryY=-0.033;entryDx=0;entryDy=0;entryPerimeter=0;exitPerimeter=0;" edge="1" parent="1" source="N2J5XHIXmiKmupVZQr-M-91" target="N2J5XHIXmiKmupVZQr-M-100">
          <mxGeometry width="50" height="50" relative="1" as="geometry">
            <mxPoint x="529" y="1701" as="sourcePoint" />
            <mxPoint x="474" y="1741" as="targetPoint" />
          </mxGeometry>
        </mxCell>
        <mxCell id="N2J5XHIXmiKmupVZQr-M-123" value="" style="endArrow=classic;html=1;rounded=0;exitX=0.923;exitY=1;exitDx=0;exitDy=0;entryX=0.826;entryY=-0.083;entryDx=0;entryDy=0;entryPerimeter=0;exitPerimeter=0;" edge="1" parent="1" source="N2J5XHIXmiKmupVZQr-M-91" target="N2J5XHIXmiKmupVZQr-M-100">
          <mxGeometry width="50" height="50" relative="1" as="geometry">
            <mxPoint x="629" y="1700" as="sourcePoint" />
            <mxPoint x="567" y="1743" as="targetPoint" />
          </mxGeometry>
        </mxCell>
        <mxCell id="N2J5XHIXmiKmupVZQr-M-124" value="" style="endArrow=classic;html=1;rounded=0;exitX=0.199;exitY=0.95;exitDx=0;exitDy=0;exitPerimeter=0;entryX=0.527;entryY=0.017;entryDx=0;entryDy=0;entryPerimeter=0;" edge="1" parent="1" source="N2J5XHIXmiKmupVZQr-M-100" target="N2J5XHIXmiKmupVZQr-M-109">
          <mxGeometry width="50" height="50" relative="1" as="geometry">
            <mxPoint x="242" y="1702" as="sourcePoint" />
            <mxPoint x="379" y="1744" as="targetPoint" />
          </mxGeometry>
        </mxCell>
        <mxCell id="N2J5XHIXmiKmupVZQr-M-125" value="" style="endArrow=classic;html=1;rounded=0;exitX=0.482;exitY=0.95;exitDx=0;exitDy=0;exitPerimeter=0;entryX=0.5;entryY=0;entryDx=0;entryDy=0;entryPerimeter=0;" edge="1" parent="1" source="N2J5XHIXmiKmupVZQr-M-100" target="N2J5XHIXmiKmupVZQr-M-109">
          <mxGeometry width="50" height="50" relative="1" as="geometry">
            <mxPoint x="387" y="1788" as="sourcePoint" />
            <mxPoint x="483" y="1821" as="targetPoint" />
          </mxGeometry>
        </mxCell>
        <mxCell id="N2J5XHIXmiKmupVZQr-M-126" value="" style="endArrow=classic;html=1;rounded=0;exitX=0.849;exitY=1.017;exitDx=0;exitDy=0;exitPerimeter=0;entryX=0.507;entryY=-0.067;entryDx=0;entryDy=0;entryPerimeter=0;" edge="1" parent="1" source="N2J5XHIXmiKmupVZQr-M-100" target="N2J5XHIXmiKmupVZQr-M-109">
          <mxGeometry width="50" height="50" relative="1" as="geometry">
            <mxPoint x="390" y="1782" as="sourcePoint" />
            <mxPoint x="483" y="1821" as="targetPoint" />
          </mxGeometry>
        </mxCell>
      </root>
    </mxGraphModel>
  </diagram>
</mxfile>
